# xmcd
#
# Track frame offsets: 
#        150
#        21836
#        41198
#        63921
#        83628
#        103063
#        129916
#        154464
#        183081
#        208398
#        229325
#
# Disc length: 3271 seconds
#
# Revision: 0
# Processed by: cddbd v1.5.2PL0 Copyright (c) Steve Scherf et al.
# Submitted via: ExactAudioCopy v0.99pb5
#
DISCID=950cc50b
DTITLE=Povo - The Yellow Of The Sun In You
DYEAR=2010
DGENRE=Jazz
TTITLE0=The Yellow of The Sun In You
TTITLE1=It's All Over Now, Baby Blue
TTITLE2=Try To Use This Argument On Your Bank Manager
TTITLE3=In The Morning
TTITLE4=What Not To Do
TTITLE5=Celestial Blues
TTITLE6=Instead of Being Bold About It
TTITLE7=Freedive
TTITLE8=Pretentious
TTITLE9=She Brings The Rain
TTITLE10=Modern Man
EXTD=
EXTT0=
EXTT1=
EXTT2=
EXTT3=
EXTT4=
EXTT5=
EXTT6=
EXTT7=
EXTT8=
EXTT9=
EXTT10=
PLAYORDER=
